<svg width="64px" height="64px" viewBox="0 0 64 64" xmlns="http://www.w3.org/2000/svg"><title>japan</title><g id="japan"><circle cx="28.5" cy="29.5" r="22.5" style="fill:#edebdc"/><polygon points="50.884 60.08 46 60.08 46 27.587 49.256 27.587 50.884 60.08" style="fill:#e66353;stroke:#4c241d;stroke-linecap:round;stroke-linejoin:round;stroke-width:2px"/><polygon points="14.971 60.08 20.101 60.08 20.101 27.587 16.681 27.587 14.971 60.08" style="fill:#e66353;stroke:#4c241d;stroke-linecap:round;stroke-linejoin:round;stroke-width:2px"/><rect x="13" y="33" width="40" height="3" rx="1.5" ry="1.5" style="fill:#e66353;stroke:#4c241d;stroke-linecap:round;stroke-linejoin:round;stroke-width:2px"/><rect x="31" y="28" width="4" height="5" style="fill:#b5a19c;stroke:#4c241d;stroke-linecap:round;stroke-linejoin:round;stroke-width:2px"/><path d="M57,25.974a143.181,143.181,0,0,1-48,0V20.746c15.415,3.212,31.442,3.061,48,0Z" style="fill:#e66353;stroke:#4c241d;stroke-linecap:round;stroke-linejoin:round;stroke-width:2px"/><path d="M62,20.908a137.544,137.544,0,0,1-58,0V15.616c19.14,6.095,38.492,5.935,58,0Z" style="fill:#a9ba5a;stroke:#4c241d;stroke-linecap:round;stroke-linejoin:round;stroke-width:2px"/><line x1="8.13" y1="60.08" x2="56.014" y2="60.08" style="fill:none;stroke:#4c241d;stroke-linecap:round;stroke-linejoin:round;stroke-width:2px"/></g></svg>